<svg width="251" height="36" viewBox="0 0 251 36" fill="none" xmlns="http://www.w3.org/2000/svg">
<path d="M116.611 34.7223L122.833 11.2779H131.166L124.944 34.7223H116.611ZM109.277 18.7223C109.388 17.6112 109.055 16.7224 108.499 16.1668C107.833 15.6113 106.944 15.2779 105.611 15.2779C103.5 15.2779 101.722 15.9446 100.166 17.1668C98.7218 18.5001 97.6107 20.2779 96.944 22.7223C96.2773 25.0556 96.3884 26.8334 97.1662 28.0556C97.944 29.2778 99.3884 29.9445 101.5 29.9445C103.055 29.9445 104.388 29.6112 105.5 28.8334C106.611 28.1667 107.388 27.0556 108.055 25.7223H116.722C115.611 28.8334 113.611 31.0556 110.944 32.5001C108.166 33.9445 104.5 34.7223 99.7218 34.7223C94.944 34.7223 91.944 33.7223 89.944 31.6112C87.944 29.6112 87.4996 26.7223 88.4996 23.0557C89.6107 19.0557 91.7218 15.9446 94.944 13.7224C98.1662 11.5002 102.166 10.5002 106.944 10.5002C111.166 10.5002 114.166 11.1668 116.055 12.6113C117.944 13.9446 118.611 16.0557 118.055 18.8335L109.277 18.7223ZM74.4997 34.7223L80.7219 11.2779H89.0551L82.833 34.7223H74.4997ZM67.1664 18.7223C67.2775 17.6112 66.9442 16.7224 66.3886 16.1668C65.7219 15.6113 64.8331 15.2779 63.4997 15.2779C61.3886 15.2779 59.6109 15.9446 58.0553 17.1668C56.6109 18.5001 55.4998 20.2779 54.8331 22.7223C54.1665 25.0556 54.2776 26.8334 55.0553 28.0556C55.8331 29.2778 57.2775 29.9445 59.3886 29.9445C60.9442 29.9445 62.2775 29.6112 63.2775 28.8334C64.3886 28.1667 65.1664 27.0556 65.8331 25.7223H74.4997C73.3886 28.8334 71.3886 31.0556 68.7219 32.5001C65.9442 33.9445 62.2775 34.7223 57.4998 34.7223C52.722 34.7223 49.722 33.7223 47.722 31.6112C45.7221 29.6112 45.2776 26.7223 46.2776 23.0557C47.3887 19.0557 49.4998 15.9446 52.722 13.7224C55.9442 11.5002 59.9442 10.5002 64.722 10.5002C68.9441 10.5002 71.9441 11.1668 73.833 12.6113C75.7219 13.9446 76.3886 16.0557 75.833 18.8335L67.1664 18.7223ZM32.3888 34.7223L38.611 11.2779H46.9443L40.7221 34.7223H32.3888Z" fill="#053C6D"/>
<path d="M136.277 34.7223L142.499 11.2779H154.388C158.499 11.2779 161.388 11.8335 163.166 13.0557C166.166 15.0557 167.055 18.5001 165.722 23.2779C164.499 27.9445 161.944 31.2778 157.944 33.1667C156.499 33.8334 154.833 34.3889 152.944 34.6112C151.833 34.7223 150.166 34.8334 148.055 34.8334L136.277 34.7223ZM152.055 16.2779H147.833L144.277 29.5001H148.499C151.166 29.5001 153.388 29.0556 154.833 28.2779C156.833 27.2779 158.166 25.5001 158.833 22.9446C160.055 18.5001 157.722 16.2779 152.055 16.2779Z" fill="#DB620A"/>
<path d="M165.166 34.6111L169.499 18.2779H175.721L171.388 34.6111H165.166ZM169.944 15.7224L171.166 11.1668H177.944L176.721 15.7224H169.944Z" fill="#DB620A"/>
<path d="M190.943 23.5001C190.277 23.389 189.721 23.389 189.055 23.389C185.721 23.389 183.61 25.2779 182.61 29.0556L181.055 34.7223H174.832L178.166 22.1668C178.61 20.6112 178.832 19.389 179.055 18.2779H185.166C185.055 19.0557 184.832 19.8334 184.61 20.7223L184.388 21.5001C186.277 19.1668 188.721 18.0557 191.832 18.0557H192.499L190.943 23.5001Z" fill="#DB620A"/>
<path d="M210.277 29.389C208.944 33.1667 205.277 35.0556 199.055 35.0556C196.055 35.0556 193.721 34.5 192.277 33.2778C190.61 31.8334 190.166 29.7223 190.944 26.8334C191.721 23.8334 193.388 21.5001 195.944 19.9446C198.166 18.6112 200.832 17.9446 204.055 17.9446C210.499 17.9446 212.943 21.0557 211.277 27.389L211.166 27.9445H196.944C196.721 29.1667 196.832 30.0556 197.499 30.7223C198.055 31.3889 199.055 31.7223 200.277 31.7223C202.388 31.7223 203.721 30.9445 204.277 29.5001L210.277 29.389ZM197.721 24.5001H205.721C205.944 23.389 205.832 22.6112 205.166 22.0557C204.61 21.5001 203.721 21.2779 202.61 21.2779C200.166 21.1668 198.499 22.2779 197.721 24.5001Z" fill="#DB620A"/>
<path d="M227.388 23.9445C227.61 22.1668 226.61 21.2779 224.499 21.2779C223.054 21.2779 221.832 21.8334 220.832 22.9445C219.943 23.8334 219.388 25.0556 218.943 26.6112C218.166 29.7223 219.054 31.2778 221.721 31.2778C224.166 31.2778 225.61 30.2778 226.166 28.2778H232.61C231.166 32.8334 227.166 35.0556 220.61 35.0556C217.499 35.0556 215.277 34.5 213.832 33.2778C212.055 31.8334 211.61 29.7223 212.388 26.8334C213.166 23.8334 214.832 21.5001 217.388 19.9446C219.61 18.6112 222.277 17.9446 225.499 17.9446C231.499 17.9446 234.166 20.0557 233.499 24.1668L227.388 23.9445Z" fill="#DB620A"/>
<path d="M246.943 12.5002L245.388 18.2779H250.499L249.499 22.1668H244.388L242.721 28.5001C242.499 29.389 242.499 29.9445 242.832 30.2778C243.166 30.6112 243.721 30.7223 244.61 30.7223C245.166 30.7223 246.054 30.7223 247.277 30.6112L246.166 34.6111C244.721 34.9445 243.388 35.0556 242.054 35.0556C237.277 35.0556 235.277 33.2778 236.277 29.8334L238.277 22.1668H234.499L235.499 18.2779H239.277L240.166 14.8335L243.721 13.8335C244.721 13.389 245.721 12.9446 246.943 12.5002Z" fill="#DB620A"/>
<path fill-rule="evenodd" clip-rule="evenodd" d="M9.50008 7.83352C14.5001 3.05576 20.0556 0.500221 24.5 0.500221C27.0555 0.500221 29.3889 1.38911 30.8333 3.38909C34.7222 8.7224 31.3888 19.5001 23.3889 27.389C21.8333 28.9445 20.2778 30.1667 18.6111 31.2778C16.7223 32.3889 12.9445 35.2778 7.50009 34.8334C5.16677 34.7223 3.389 33.6112 2.05567 31.9445C-1.72209 26.5001 1.61123 15.7224 9.50008 7.83352Z" fill="white"/>
<path fill-rule="evenodd" clip-rule="evenodd" d="M24.2778 3.61132C25.1667 4.5002 24.6111 6.50019 22.9445 8.05574C21.3889 9.61128 19.3889 10.1668 18.5 9.27795C17.6111 8.38907 18.1667 6.38908 19.6111 4.83353C21.3889 3.05576 23.3889 2.61132 24.2778 3.61132ZM9.50008 7.83352C1.61123 15.7224 -1.72209 26.5001 2.05567 31.9445C3.389 33.6112 5.16677 34.7223 7.50009 34.8334C9.05564 34.9445 10.2779 33.1667 11.389 30.8334C12.389 28.5001 13.0556 26.1668 13.6112 24.1668C14.3889 20.9446 14.3889 18.5001 13.9445 18.0557C13.2778 17.2779 11.9445 17.389 10.2779 18.389C9.50008 18.8335 8.50008 18.5001 9.7223 17.0557C10.8334 15.7224 15.8334 11.9446 17.5 11.5002C19.5 10.8335 21.7222 11.6113 20.9445 13.8335C20.3889 15.389 13.6112 33.2778 18.6111 31.3889C20.2778 30.2778 21.8333 29.0556 23.3889 27.5001C31.3888 19.6112 34.7222 8.83351 30.8333 3.50021C29.3889 1.50022 27.0555 0.611333 24.5 0.611333C20.0556 0.500222 14.5001 3.05576 9.50008 7.83352Z" fill="#DB620A"/>
<path fill-rule="evenodd" clip-rule="evenodd" d="M24.2777 3.61132C25.1666 4.5002 24.611 6.50019 22.9444 8.05574C21.3888 9.61128 19.3888 10.1668 18.5 9.27795C17.6111 8.38907 18.1666 6.38908 19.6111 4.83353C21.3888 3.05576 23.3888 2.61132 24.2777 3.61132ZM14.8333 3.72243C13.9444 4.5002 13.0555 5.05575 12.1667 6.05575C5.1667 12.8335 2.38893 22.1668 5.83336 26.9445C7.16669 28.8334 9.27779 29.6112 11.8333 29.6112C12.6111 27.6112 13.1667 25.9445 13.5 24.2779C14.2778 21.0557 14.2778 18.6112 13.8333 18.1668C13.1667 17.389 11.8333 17.5001 10.1667 18.5001C9.3889 18.9446 8.3889 18.6112 9.61112 17.1668C10.7222 15.8335 15.7222 12.0557 17.3889 11.6113C19.3888 10.9446 21.6111 11.7224 20.8333 13.9446C20.4999 15.0557 17.0555 23.8334 16.7222 28.6112C19.3888 27.5001 22.1666 25.7223 24.7221 23.1668C28.611 19.5001 31.1666 15.1668 32.1666 11.1668C32.4999 8.27796 32.0554 5.61131 30.7221 3.61132C27.7221 -0.721993 21.3888 -0.388662 14.8333 3.72243Z" fill="#97291E"/>
</svg>
